<?xml version="1.0" encoding="utf-8"?>
<!-- Generator: Adobe Illustrator 24.1.1, SVG Export Plug-In . SVG Version: 6.00 Build 0)  -->
<svg version="1.1" id="Calque_1" xmlns="http://www.w3.org/2000/svg" xmlns:xlink="http://www.w3.org/1999/xlink" x="0px" y="0px"
	 viewBox="0 0 2834.6 368.5" style="enable-background:new 0 0 2834.6 368.5;" xml:space="preserve">
<style type="text/css">
	.st0{stroke:#000000;stroke-width:6.830000e-02;stroke-miterlimit:10;}
	.st1{fill:#BAA664;}
</style>
<g>
	<g>
		<path class="st0" d="M139.1,187.2c0,17.2,5.6,23.5,24.5,27.2v5.6H71.8v-5.6c18.6-2.6,24.5-10.9,24.5-28.5v-56.7L46,52
			c-9.6-14.6-15.3-18.9-27.5-20.2v-5.6H107v5.6c-15.6,0.7-17.9,8.9-8.6,23.5l33.5,51.7l29.5-42.4c10.6-15.3,9.9-28.5-8-32.8v-5.6h60
			v5.6c-9.6,1-19.2,7.6-28.5,20.9L139.1,118L139.1,187.2L139.1,187.2z"/>
		<path class="st0" d="M386.5,153.1h-6.3c-2.3-16.9-10.9-24.9-26.9-24.9h-34.1v57c0,17.6,7.3,23.9,26.5,23.9h11.3
			c23.9,0,34.5-17.6,40.8-36.1h5.6l-3.6,47.1H251.9v-5.6c21.5-4.6,24.5-11.3,24.5-31.2V58.6c0-16.9-4-22.9-24.5-26.9v-5.6h145.6
			v43.1h-5.6c-6.3-24.9-13.6-32.2-35.1-32.2h-37.5v80.2h34.1c15.6,0,22.9-6.6,26.9-24.2h6.3L386.5,153.1L386.5,153.1z"/>
		<path class="st0" d="M512.1,188.2c0,15.9,6.6,20.9,30.5,20.9s34.8-7.3,50.4-39.4h5.6l-5.6,50.4H444.8v-5.6
			c22.2-5.6,24.5-10.6,24.5-31.5v-124c0-17.2-4.3-22.2-24.5-27.2v-5.6h91.8v5.6c-19.2,5-24.5,8.9-24.5,25.9L512.1,188.2L512.1,188.2
			z"/>
		<path class="st0" d="M704.4,188.2c0,15.9,6.6,20.9,30.5,20.9s34.8-7.3,50.4-39.4h5.6l-5.6,50.4H637.1v-5.6
			c22.2-5.6,24.5-10.6,24.5-31.5v-124c0-17.2-4.3-22.2-24.5-27.2v-5.6h91.8v5.6c-19.2,5-24.5,8.9-24.5,25.9V188.2z"/>
		<path class="st0" d="M937.1,225c-61.3,0-105.4-42.4-105.4-101.8S875.8,21.1,937.1,21.1c61.7,0,105.8,42.8,105.8,102.1
			S998.8,225,937.1,225z M937.1,32.1c-38.1,0-59,31.5-59,92.8c0,46.8,15.3,89.2,59,89.2c32.5,0,59.3-25.5,59.3-89.5
			C996.5,70.2,979.5,32.1,937.1,32.1z"/>
		<path class="st0" d="M1277.3,225h-6l-56.4-152.8h-0.7L1162.9,225h-5.6l-60.3-162.1c-9.6-25.5-13.9-29.8-30.8-31.2v-5.6h83.6v5.6
			c-15.3,3-14.6,14.3-9.9,26.9l34.5,93.5h0.7L1208,54c-7-15.9-11.6-19.6-27.5-22.2v-5.6h82.6v5.6c-11.9,3.3-14.6,11.9-10.6,22.2
			l36.1,98.1h0.7l26.8-79.9c7.6-22.5,8.9-36.5-11.9-40.5v-5.6h60.3v5.6c-15.6,1.7-26.5,14.6-36.5,44.1L1277.3,225z"/>
		<path class="st0" d="M1621.7,193.9c12.9,15.9,17.9,19.6,28.8,20.6v5.6H1562v-5.6c12.6-3,17.6-7.6,9.3-17.6l-60-75.3h-0.7v63.3
			c0,20.2,4,23.5,24.2,29.5v5.6h-91.5v-5.6c19.6-4.6,24.5-9.3,24.5-28.2V58.9c0-17.2-4-22.2-24.5-27.2v-5.6h91.5v5.6
			c-15.3,3.6-24.2,8.3-24.2,24.9V114l59.7-57.4c8.3-8,10.9-19.6-11.9-24.9v-5.6h80.6v5.6c-19.2,0-35.1,9.9-58.7,32.5l-36.1,34.2
			L1621.7,193.9z"/>
		<path class="st0" d="M1781.5,225c-61.3,0-105.4-42.4-105.4-101.8s44.1-102.1,105.4-102.1c61.7,0,105.8,42.8,105.8,102.1
			S1843.2,225,1781.5,225z M1781.5,32.1c-38.1,0-59,31.5-59,92.8c0,46.8,15.3,89.2,59,89.2c32.5,0,59.3-25.5,59.3-89.5
			C1840.8,70.2,1823.9,32.1,1781.5,32.1z"/>
		<path class="st0" d="M1957.5,58.3c0-16.2-3.7-22.5-24.5-26.5v-5.6h92.2c53.7,0,75.3,21.5,75.3,48.7c0,19.9-11.3,38.1-39.1,46.1
			v0.7c21.6,5,42.4,67,60,84.5c5,5,9.3,7,17.6,8.3v5.6h-56c-21.2-25.2-35.1-68.6-50.1-83.6c-8.6-8.6-15.3-8.9-32.5-8.9v59.7
			c0,17.2,7,24.5,24.9,27.2v5.6H1933v-5.6c15.9-1.3,24.5-9.3,24.5-24.9L1957.5,58.3L1957.5,58.3z M2000.3,116.6
			c36.8,2.7,53.7-8.9,53.7-41.1c0-24.9-13.9-38.5-40.4-38.5h-13.3V116.6z"/>
		<path class="st0" d="M2353.4,222.4h-6.3L2207.5,64.9v118.7c0,21.2,6.3,27.2,28.5,30.8v5.6h-67v-5.6c20.9-3.3,25.9-14.6,25.5-33.5
			V51c-14.9-15.3-17.9-17.6-25.9-19.2v-5.6h58.4l113.4,130V68.9c0-23.5-4-32.5-24.5-37.1v-5.6h65.6v5.6
			c-22.2,1.3-28.2,14.6-28.2,31.8L2353.4,222.4L2353.4,222.4z"/>
		<path class="st0" d="M2554.3,153.1h-6.3c-2.3-16.9-10.9-24.9-26.9-24.9H2487v57c0,17.6,7.3,23.9,26.5,23.9h11.3
			c23.9,0,34.5-17.6,40.8-36.1h5.6l-3.6,47.1h-147.9v-5.6c21.6-4.6,24.5-11.3,24.5-31.2V58.6c0-16.9-4-22.9-24.5-26.9v-5.6h145.6
			v43.1h-5.6c-6.3-24.9-13.6-32.2-35.1-32.2H2487v80.2h34.1c15.6,0,22.9-6.6,26.9-24.2h6.3L2554.3,153.1L2554.3,153.1z"/>
		<path class="st0" d="M2634.8,58.3c0-16.2-3.6-22.5-24.5-26.5v-5.6h92.2c53.7,0,75.3,21.5,75.3,48.7c0,19.9-11.3,38.1-39.1,46.1
			v0.7c21.6,5,42.4,67,60,84.5c5,5,9.3,7,17.6,8.3v5.6h-56c-21.2-25.2-35.1-68.6-50.1-83.6c-8.6-8.6-15.3-8.9-32.5-8.9v59.7
			c0,17.2,7,24.5,24.9,27.2v5.6h-92.2v-5.6c15.9-1.3,24.5-9.3,24.5-24.9L2634.8,58.3L2634.8,58.3z M2677.6,116.6
			c36.8,2.7,53.7-8.9,53.7-41.1c0-24.9-13.9-38.5-40.4-38.5h-13.3V116.6z"/>
	</g>
</g>
<g>
	<g>
		<path class="st1" d="M164.6,292.8h21.9c12.8,0,20.6,7.6,20.6,18.6v0.1c0,12.4-9.7,18.9-21.7,18.9h-9v16.1h-11.8L164.6,292.8
			L164.6,292.8z M185.7,319.8c5.9,0,9.4-3.5,9.4-8.1v-0.1c0-5.3-3.7-8.1-9.6-8.1h-9.1v16.4H185.7z"/>
		<path class="st1" d="M243.7,292.8h11.8V314h21.8v-21.2h11.8v53.7h-11.8v-21.5h-21.8v21.5h-11.8V292.8z"/>
		<path class="st1" d="M327.5,319.8v-0.1c0-15.3,12-27.8,28.6-27.8c16.6,0,28.5,12.4,28.5,27.6v0.1c0,15.3-12,27.8-28.6,27.8
			C339.4,347.4,327.5,335,327.5,319.8z M372.2,319.8v-0.1c0-9.2-6.8-16.9-16.3-16.9s-16.1,7.5-16.1,16.7v0.1
			c0,9.2,6.8,16.9,16.3,16.9S372.2,329,372.2,319.8z"/>
		<path class="st1" d="M433.2,303.6h-16.3v-10.9h44.5v10.9H445v42.8h-11.8L433.2,303.6L433.2,303.6z"/>
		<path class="st1" d="M493.6,319.8v-0.1c0-15.3,12-27.8,28.6-27.8s28.5,12.4,28.5,27.6v0.1c0,15.3-12,27.8-28.6,27.8
			C505.5,347.4,493.6,335,493.6,319.8z M538.3,319.8v-0.1c0-9.2-6.8-16.9-16.3-16.9s-16.1,7.5-16.1,16.7v0.1
			c0,9.2,6.8,16.9,16.3,16.9C531.7,336.5,538.3,329,538.3,319.8z"/>
		<path class="st1" d="M586.7,319.8v-0.1c0-15.3,11.9-27.8,28.2-27.8c9.7,0,15.5,2.6,21.1,7.4l-7.4,9c-4.1-3.5-7.8-5.4-14-5.4
			c-8.6,0-15.4,7.6-15.4,16.7v0.1c0,9.8,6.8,17,16.3,17c4.3,0,8.1-1.1,11.1-3.2v-7.7h-11.9v-10.2h23.3v23.3
			c-5.5,4.7-13.1,8.5-22.9,8.5C598.2,347.4,586.7,335.6,586.7,319.8z"/>
		<path class="st1" d="M677.1,292.8h24.5c6.8,0,12.1,1.9,15.7,5.4c3,3,4.6,7.2,4.6,12.3v0.1c0,8.7-4.7,14.1-11.5,16.6l13.1,19.2
			h-13.8l-11.5-17.2H698h-9.1v17.2h-11.8V292.8z M700.9,318.8c5.8,0,9-3.1,9-7.6v-0.1c0-5.1-3.5-7.7-9.3-7.7h-11.7v15.4L700.9,318.8
			L700.9,318.8z"/>
		<path class="st1" d="M778.9,292.4h10.9l23,54.1h-12.3l-4.9-12h-22.7l-4.9,12h-12L778.9,292.4z M791.3,324l-7.1-17.4L777,324H791.3
			z"/>
		<path class="st1" d="M848.9,292.8h21.9c12.8,0,20.5,7.6,20.5,18.6v0.1c0,12.4-9.7,18.9-21.7,18.9h-9v16.1H849L848.9,292.8
			L848.9,292.8z M870.1,319.8c5.9,0,9.4-3.5,9.4-8.1v-0.1c0-5.3-3.7-8.1-9.6-8.1h-9.1v16.4H870.1z"/>
		<path class="st1" d="M928.1,292.8h11.8V314h21.8v-21.2h11.8v53.7h-11.8v-21.5h-21.8v21.5h-11.8V292.8z"/>
		<path class="st1" d="M1029.4,325.3l-20.6-32.5h13.8l12.8,21.5l13-21.5h13.4l-20.6,32.3v21.4h-11.8L1029.4,325.3L1029.4,325.3z"/>
	</g>
	<g>
		<path class="st1" d="M1253.7,292.4h10.9l23,54.1h-12.3l-4.9-12h-22.7l-4.9,12h-12L1253.7,292.4z M1266.1,324l-7.1-17.4l-7.1,17.4
			H1266.1z"/>
		<path class="st1" d="M1323.8,292.8h24.5c6.8,0,12.1,1.9,15.7,5.4c3,3,4.6,7.2,4.6,12.3v0.1c0,8.7-4.7,14.1-11.5,16.6l13.1,19.2
			h-13.8l-11.5-17.2h-0.2h-9.1v17.2h-11.8L1323.8,292.8L1323.8,292.8z M1347.6,318.8c5.8,0,9.1-3.1,9.1-7.6v-0.1
			c0-5.1-3.5-7.7-9.3-7.7h-11.7v15.4L1347.6,318.8L1347.6,318.8z"/>
		<path class="st1" d="M1419.7,303.6h-16.3v-10.9h44.5v10.9h-16.3v42.8h-11.8L1419.7,303.6L1419.7,303.6z"/>
	</g>
	<g>
		<path class="st1" d="M1623,292.8h11.8v43h26.8v10.7H1623L1623,292.8L1623,292.8z"/>
		<path class="st1" d="M1698.9,292.8h11.8v53.7h-11.8V292.8z"/>
		<path class="st1" d="M1752.1,292.8h12.7l14.1,22.7l14.1-22.7h12.7v53.7H1794v-35l-15.1,22.9h-0.3l-15-22.7v34.8h-11.6
			L1752.1,292.8L1752.1,292.8z"/>
		<path class="st1" d="M1847.1,292.8h11.8v53.7h-11.8V292.8z"/>
		<path class="st1" d="M1912.7,303.6h-16.3v-10.9h44.5v10.9h-16.3v42.8h-11.8L1912.7,303.6L1912.7,303.6z"/>
		<path class="st1" d="M1977.8,292.8h40.5v10.5h-28.8v10.9h25.3v10.5h-25.3v11.3h29.1v10.5h-40.9V292.8z"/>
		<path class="st1" d="M2057.1,292.8h20.9c16.9,0,28.5,11.6,28.5,26.7v0.1c0,15.1-11.7,26.8-28.5,26.8h-20.9V292.8z M2078.1,335.8
			c9.7,0,16.2-6.5,16.2-16v-0.1c0-9.5-6.5-16.2-16.2-16.2h-9.1v32.4L2078.1,335.8L2078.1,335.8z"/>
		<path class="st1" d="M2177.8,292.8h40.5v10.5h-28.8v10.9h25.3v10.5h-25.3v11.3h29.1v10.5h-40.9V292.8z"/>
		<path class="st1" d="M2257.1,292.8h20.9c16.9,0,28.5,11.6,28.5,26.7v0.1c0,15.1-11.7,26.8-28.5,26.8h-20.9V292.8z M2278,335.8
			c9.7,0,16.2-6.5,16.2-16v-0.1c0-9.5-6.5-16.2-16.2-16.2h-9.1v32.4L2278,335.8L2278,335.8z"/>
		<path class="st1" d="M2345.5,292.8h11.8v53.7h-11.8V292.8z"/>
		<path class="st1" d="M2411.1,303.6h-16.3v-10.9h44.5v10.9h-16.3v42.8h-11.8L2411.1,303.6L2411.1,303.6z"/>
		<path class="st1" d="M2476.7,292.8h11.8v53.7h-11.8V292.8z"/>
		<path class="st1" d="M2527.5,319.8v-0.1c0-15.3,12-27.8,28.6-27.8s28.4,12.4,28.4,27.6v0.1c0,15.3-12,27.8-28.6,27.8
			C2539.4,347.4,2527.5,335,2527.5,319.8z M2572.2,319.8v-0.1c0-9.2-6.8-16.9-16.3-16.9s-16.1,7.5-16.1,16.7v0.1
			c0,9.2,6.8,16.9,16.3,16.9C2565.6,336.5,2572.2,329,2572.2,319.8z"/>
		<path class="st1" d="M2622.4,292.8h10.9l25.2,33.1v-33.1h11.7v53.7H2660l-26-34.1v34.1h-11.7L2622.4,292.8L2622.4,292.8z"/>
	</g>
	
		<rect x="1525.9" y="308" transform="matrix(0.7071 -0.7071 0.7071 0.7071 224.3286 1180.7794)" class="st1" width="23.1" height="23.1"/>
	
		<rect x="1134.9" y="308" transform="matrix(0.7071 -0.7071 0.7071 0.7071 109.7948 904.267)" class="st1" width="23.1" height="23.1"/>
</g>
</svg>
